<svg xmlns="http://www.w3.org/2000/svg" width="32" height="32" viewBox="0 0 32 32">
  <g id="Group_7" data-name="Group 7" transform="translate(-2026.21 260)">
    <path id="Icon_simple-elasticsearch" data-name="Icon simple-elasticsearch" d="M16.536,20.92H2.4a14.993,14.993,0,0,1,0-9.608H25.612a5.478,5.478,0,0,1,3.71,1.4,4.552,4.552,0,0,1,.02,6.792,5.458,5.458,0,0,1-3.686,1.413Zm-.659,1.61H3.04a16.284,16.284,0,0,0,6.426,6.951,18.416,18.416,0,0,0,9.6,2.644A17.992,17.992,0,0,0,33.6,25.013a9.308,9.308,0,0,0-6.368-2.5ZM27.237,9.715A9.308,9.308,0,0,0,33.6,7.233,18.114,18.114,0,0,0,17.521.188,17.484,17.484,0,0,0,3.04,9.715h24.2Z" transform="translate(2024.605 -260.125)" fill="#f7931a"/>
  </g>
</svg>